<?xml version="1.0" encoding="UTF-8" standalone="no"?>
<!-- Created with Inkscape (http://www.inkscape.org/) -->

<svg
   width="20.361551mm"
   height="6.8263583mm"
   viewBox="0 0 20.361551 6.8263583"
   version="1.1"
   id="svg1"
   sodipodi:docname="MAE.svg"
   inkscape:version="1.3 (0e150ed6c4, 2023-07-21)"
   xmlns:inkscape="http://www.inkscape.org/namespaces/inkscape"
   xmlns:sodipodi="http://sodipodi.sourceforge.net/DTD/sodipodi-0.dtd"
   xmlns="http://www.w3.org/2000/svg"
   xmlns:svg="http://www.w3.org/2000/svg">
  <sodipodi:namedview
     id="namedview1"
     pagecolor="#ffffff"
     bordercolor="#666666"
     borderopacity="1.0"
     inkscape:showpageshadow="2"
     inkscape:pageopacity="0.0"
     inkscape:pagecheckerboard="0"
     inkscape:deskcolor="#d1d1d1"
     inkscape:document-units="mm"
     inkscape:zoom="16"
     inkscape:cx="87.03125"
     inkscape:cy="27.78125"
     inkscape:window-width="1920"
     inkscape:window-height="1001"
     inkscape:window-x="-9"
     inkscape:window-y="-9"
     inkscape:window-maximized="1"
     inkscape:current-layer="layer1"
     showguides="false" />
  <defs
     id="defs1" />
  <g
     inkscape:label="Capa 1"
     inkscape:groupmode="layer"
     id="layer1"
     transform="translate(-9.6654274,-4.3102812)">
    <path
       id="text24"
       style="font-size:10.5833px;line-height:1.25;font-family:Centaur;-inkscape-font-specification:Centaur;stroke-width:347.26;stroke-dasharray:none"
       d="m 21.740144,4.3102812 -0.170532,0.010335 c -0.02067,0.020671 -0.03101,0.053399 -0.03101,0.098185 -0.04479,0.1584731 -0.115413,0.3686299 -0.211873,0.6304525 -0.09646,0.2618225 -0.199816,0.523658 -0.310059,0.7854818 -0.106785,0.2583774 -0.211874,0.5064323 -0.315226,0.7441406 l -0.826823,1.9792074 c -0.06201,0.1791418 -0.163642,0.4289205 -0.304891,0.7493082 -0.137803,0.3169476 -0.275608,0.6115066 -0.413411,0.8836673 -0.134358,0.268717 -0.182955,0.486019 -0.265635,0.558369 -0.05032,0.18185 -0.526838,0.06575 -0.547752,0.121693 -0.06287,0.168158 0.925056,0.184469 0.93406,0.183557 0.0097,-9.84e-4 0.640018,-0.0054 1.047214,0.01385 V 10.88559 c -0.33416,-0.04823 -0.556383,-0.04168 -0.666626,-0.120923 -0.106796,-0.08268 -0.160197,-0.184312 -0.160197,-0.30489 0,-0.09991 0.08441,-0.349679 0.253215,-0.7493077 l 0.718819,-1.7482141 c -5.59e-4,-6.132e-4 -0.0015,-0.0012 -0.0015,-0.00207 -5.4e-4,-0.0011 -3.92e-4,-0.00239 -5.17e-4,-0.00362 5e-4,-0.0022 9.5e-4,-0.00472 0.0015,-0.00672 5e-4,-8.4e-4 0.0014,-0.00132 0.0021,-0.00207 l 0.581877,-1.4980998 c 0.05167,-0.1240204 0.0999,-0.2446034 0.144694,-0.361735 0.04823,-0.1205766 0.105072,-0.2532176 0.170532,-0.3979085 0.05168,0.099907 0.134359,0.2859476 0.248047,0.5581054 0.117133,0.2721591 0.196371,0.459922 0.237712,0.5632732 l 0.37207,0.9508463 c 0.250822,0.669904 0.4979,1.3420019 0.754476,2.0102135 0.031,0.07235 0.07752,0.203264 0.139526,0.3927407 0.06201,0.18948 0.09302,0.334172 0.09302,0.434082 0,0.106797 -0.04823,0.182587 -0.144694,0.227376 -0.09302,0.04479 -0.218764,0.08096 -0.377238,0.108521 v 0.170532 c 0.05168,-0.0034 0.129191,-0.01034 0.232544,-0.02067 0.103353,-0.0069 0.410311,0.0072 0.410311,0.0072 0,0 0.384473,-10e-4 0.591178,-10e-4 0.261827,0 0.525723,-0.01102 0.80822,0.01654 l 0.0041,-0.203596 C 24.458475,10.876627 24.27401,10.799118 24.18444,10.67165 24.077643,10.523512 23.951896,10.277173 23.807202,9.9326773 23.665954,9.5847243 23.455801,9.0472749 23.176749,8.3203724 L 22.091544,5.4109892 C 21.964076,5.0595958 21.846941,4.6926804 21.740144,4.3102812 Z M 9.7377763,4.3774606 9.7171057,4.573831 c 0.2962733,0.024116 0.5288253,0.070625 0.6976313,0.1395264 0.172253,0.065456 0.30317,0.1894834 0.392741,0.3720703 0.09302,0.1825869 0.139527,0.4495913 0.139527,0.8009847 0,0.086127 -0.0086,0.2532192 -0.02584,0.5012614 l -0.15503,2.6975098 c -0.0379,0.5443097 -0.07752,0.9215624 -0.118856,1.1317134 -0.04134,0.21015 -0.130915,0.372072 -0.268717,0.485759 -0.137801,0.11023 -0.372075,0.194614 -0.7027995,0.253214 l -0.010335,0.149862 c 0.048231,0 0.1274714,-0.0034 0.2377115,-0.01034 0.110241,-0.0034 0.22221,-0.0068 0.335897,-0.01033 0.113685,-0.0035 0.199816,-0.0052 0.258382,-0.0052 0.06201,-0.0035 0.129192,-0.0052 0.201538,-0.0052 l 0.625285,-0.01033 c 0.261824,0 0.506432,0.01378 0.733805,0.04134 l 0.01034,-0.170532 c -0.413403,-0.04401 -0.676963,-0.120519 -0.790649,-0.227317 -0.110241,-0.106797 -0.165365,-0.294556 -0.165365,-0.563273 0,-0.8715932 0.02756,-1.6984445 0.08268,-2.4804683 0.05512,-0.7820238 0.111966,-1.4658979 0.170533,-2.0515544 0.744128,1.4331369 1.338426,2.5735007 1.782837,3.4209798 0.220483,0.4202948 0.39102,0.7923732 0.511596,1.1162109 0.120577,0.323825 0.223933,0.621843 0.310059,0.894002 l 0.160197,-0.01034 c 0.0689,-0.216976 0.137805,-0.409962 0.206706,-0.578771 0.07235,-0.168809 0.218767,-0.4943847 0.439249,-0.9766845 0.106797,-0.227373 0.244604,-0.502989 0.413412,-0.826823 0.168806,-0.3238327 0.34279,-0.6562957 0.521932,-0.9973551 0.182588,-0.3410595 0.380684,-0.7114187 0.594279,-1.1110433 0.21704,-0.3996246 0.377238,-0.6993576 0.480591,-0.8991699 0.07235,0.5029759 0.118855,1.0542089 0.139526,1.6536458 l 0.04134,1.3952637 c 0.0069,0.1619164 0.01033,0.3737976 0.01033,0.6356201 0,0.4099645 -0.02756,0.7183032 -0.08268,0.9250082 -0.05512,0.203247 -0.144695,0.346234 -0.268718,0.428914 -0.124023,0.07924 -0.33073,0.153309 -0.620118,0.222209 l 0.01033,0.191202 c 0.275608,-0.03445 0.602907,-0.05168 0.981853,-0.05168 l 0.687297,-0.01034 1.72496,0.01964 -0.836125,-0.200505 c -0.213595,-0.0069 -0.372071,-0.02412 -0.475424,-0.05168 -0.103342,-0.03101 -0.187764,-0.0913 -0.253214,-0.180868 -0.06546,-0.09302 -0.110249,-0.220486 -0.134359,-0.382405 -0.02067,-0.161919 -0.03961,-0.4047997 -0.05684,-0.7286377 -0.01033,-0.279048 -0.01894,-0.5115999 -0.02584,-0.6976318 -0.0069,-0.1894771 -0.01377,-0.3427887 -0.02067,-0.4599203 -0.0034,-0.1205754 -0.0068,-0.2204876 -0.01033,-0.2997233 0,-0.082682 -0.0017,-0.1653661 -0.0052,-0.2480468 l -0.03101,-1.4366049 c -0.0069,-0.4754152 -0.0034,-0.807878 0.01033,-0.9973551 0.01723,-0.189477 0.05512,-0.3341753 0.113688,-0.434082 0.05857,-0.099907 0.142984,-0.1688098 0.253214,-0.2067058 0.110243,-0.041341 0.298003,-0.077515 0.563274,-0.1085205 l 0.01034,-0.1912028 c -0.155029,0.00688 -0.363459,0.010335 -0.625285,0.010335 -0.316948,0 -0.609795,-0.00345 -0.878499,-0.010335 -0.0861,0.189485 -0.213597,0.4444222 -0.382406,0.7648112 C 16.457819,5.5144252 16.1646,6.0638477 15.747745,6.8424264 15.334342,7.6210051 15.094899,8.0723284 15.029443,8.1963489 14.678049,8.8750227 14.424826,9.3435656 14.269799,9.6019483 13.8874,8.8853746 13.568718,8.2910811 13.313785,7.819111 13.062297,7.3436958 12.800461,6.8441407 12.528304,6.3204944 12.256146,5.7934043 12.073549,5.4247701 11.980533,5.2146188 11.890962,5.0044713 11.789329,4.7460809 11.675642,4.4394723 c -0.113686,0 -0.199815,0.00172 -0.258382,0.00517 -0.05857,0 -0.120579,0.00172 -0.186035,0.00517 -0.161917,0 -0.320397,-0.00517 -0.475423,-0.015503 -0.155028,-0.010395 -0.32212,-0.022398 -0.501261,-0.036178 -0.155028,-0.00345 -0.2635522,-0.00689 -0.3255619,-0.010335 -0.062011,-0.0069 -0.1257471,-0.010335 -0.1912028,-0.010336 z m 19.8654547,0 c -0.750583,-0.037529 -1.312583,0.041341 -1.684652,0.041341 H 24.60612 c -0.0069,0.034451 -0.01033,0.079238 -0.01033,0.1343588 0.502132,0.1968261 0.999481,0.2192798 1.534281,0.2180722 2.13e-4,-0.00206 3.03e-4,-0.00414 5.17e-4,-0.0062 0.02435,-0.00304 0.04808,-0.00484 0.07235,-0.00775 0.52496,-0.062948 1.030078,-0.095601 1.514119,-0.095601 0.420301,0 0.780316,0.034451 1.080038,0.1033528 0.303155,0.068902 0.454752,0.2291023 0.454752,0.4805909 0,0.017225 -0.0069,0.08096 -0.02067,0.1912028 -0.01377,0.1102402 -0.02067,0.1756994 -0.02067,0.1963704 0,0.051676 0.04306,0.077515 0.129191,0.077515 0.0689,0 0.125743,-0.1481439 0.170533,-0.4444173 0.04479,-0.2962734 0.07579,-0.5925612 0.09302,-0.8888346 z m -0.666626,2.4442952 c -0.05856,0.2032574 -0.111967,0.3548459 -0.160197,0.4547526 -0.04823,0.096463 -0.09991,0.1567526 -0.155029,0.1808676 -0.05168,0.024116 -0.15503,0.044787 -0.310059,0.062012 -0.272148,0.027561 -0.773439,0.041341 -1.503784,0.041341 -0.40903,0 -0.63793,0.0028 -0.729154,-0.00362 l -0.11059,-0.00465 c -0.0059,0.0021 -0.120643,-0.014924 -0.170017,-0.017052 -0.02143,-9.232e-4 -0.08191,-0.00971 -0.103354,-0.010331 -0.09669,2.395e-4 -0.113633,-0.012056 -0.210323,-0.012406 -0.02689,-1.742e-4 -0.05063,-0.00935 -0.07752,-0.0093 0.0032,0.1093852 3.33e-4,0.2611166 0.001,0.37052 0.01839,2.339e-4 0.06062,-0.00341 0.06976,-0.0031 0.0065,3.794e-4 0.08424,-0.00136 0.100257,-0.00155 0.01717,0.00298 0.148028,0.00193 0.173625,-6.5e-6 l 1.226793,-0.055296 c 0.61667,0 1.045588,0.017226 1.286744,0.051676 0.241143,0.034451 0.403078,0.1136898 0.485758,0.2377116 0.08612,0.1240205 0.117818,0.2287597 0.128158,0.5457031 l 0.147794,0.016536 c 0.0035,-0.3651737 0.0217,-0.5732687 0.0217,-0.8557617 0.0035,-0.2824937 0.0052,-0.6028973 0.0052,-0.9611816 z m -8.424809,1.1306804 c -0.0068,9.462e-4 -0.01394,9.743e-4 -0.02067,0.00207 0.0026,0.00102 0.01294,0.00695 0.01602,0.00827 5.3e-5,-1.87e-4 -5.4e-5,-9.205e-4 0,-0.00103 0.0012,-0.00322 0.0031,-0.00618 0.0047,-0.0093 z m -0.02067,0.00207 -5.17e-4,-5.167e-4 c -0.0042,-0.00162 -0.0026,8.282e-4 -0.0057,0 -2.95e-4,3.827e-4 -10e-4,8.584e-4 -10e-4,0.00155 0.0024,-3.934e-4 0.0049,-5.872e-4 0.0072,-0.00103 z m 9.375656,1.6164381 c -0.117133,0.330715 -0.258383,0.5839427 -0.423747,0.7596427 -0.161919,0.175699 -0.39791,0.303166 -0.707967,0.382406 -0.306613,0.07923 -0.730375,0.118856 -1.27124,0.118856 -0.217041,0 -0.39791,-0.0052 -0.542603,-0.0155 -0.144693,-0.01378 -0.256657,-0.02584 -0.335897,-0.03617 -0.07579,-0.01378 -0.156749,-0.03101 -0.242879,-0.05168 -0.386048,-0.06883 -0.782061,-0.08546 -1.174186,-0.10247 -0.0088,0.04523 6.8e-5,0.01079 -0.0092,0.05586 -0.03101,0.159517 -0.02047,0.264652 -0.03792,0.428651 0.0072,-10e-4 0.231533,0.01198 0.31697,0.0106 0.420458,-0.0068 0.778605,-0.02411 1.074869,-0.03101 0.299723,-0.0035 0.561551,-0.0052 0.785482,-0.0052 -0.03445,0 0.07063,0.0034 0.315226,0.01033 0.244601,0.0069 0.473702,0.01034 0.687297,0.01034 0.354844,0 0.630453,0.0017 0.826823,0.0052 0.196369,0.0069 0.3514,0.01551 0.465088,0.02584 0.103349,-0.213595 0.187754,-0.437529 0.253214,-0.671794 0.06546,-0.237711 0.125748,-0.5357257 0.180868,-0.8940017 z"
       sodipodi:nodetypes="cccsccccccsscccscccccccccccccsscccccscccccccccccsccscccccccccccsscccccccscccccsccccccccccccccccccscccscccccccccccccccsscccccscssssscsccccsccsccccccccsccccccccccccccccsccccsccscccscccsccccc" />
  </g>
</svg>
